{
  "accessors": [
    {
      "bufferView": 2,
      "componentType": 5126,
      "count": 1523,
      "max": [
        0.04317537322640419,
        0.06014968454837799,
        0.03918960690498352
      ],
      "min": [
        -0.03926564380526543,
        -0.03291331231594086,
        -0.04325142502784729
      ],
      "type": "VEC3"
    },
    {
      "bufferView": 2,
      "byteOffset": 18276,
      "componentType": 5126,
      "count": 1523,
      "max": [
        1.0,
        1.0,
        1.0
      ],
      "min": [
        -1.0,
        -0.999436616897583,
        -1.0
      ],
      "type": "VEC3"
    },
    {
      "bufferView": 3,
      "componentType": 5126,
      "count": 1523,
      "max": [
        0.999478816986084,
        1.0,
        0.9978650212287903,
        1.0
      ],
      "min": [
        -0.9994367361068726,
        -0.9999980330467224,
        -1.0,
        1.0
      ],
      "type": "VEC4"
    },
    {
      "bufferView": 1,
      "componentType": 5126,
      "count": 1523,
      "max": [
        0.9478626251220703,
        0.9998949766159058
      ],
      "min": [
        0.00010499769996386021,
        0.00010499769996386021
      ],
      "type": "VEC2"
    },
    {
      "bufferView": 0,
      "componentType": 5125,
      "count": 7206,
      "type": "SCALAR"
    },
    {
      "bufferView": 2,
      "byteOffset": 36552,
      "componentType": 5126,
      "count": 3047,
      "max": [
        0.03267265856266022,
        0.05001581832766533,
        0.017004884779453278
      ],
      "min": [
        -0.0280165895819664,
        -0.011085128411650658,
        -0.017364870756864548
      ],
      "type": "VEC3"
    },
    {
      "bufferView": 2,
      "byteOffset": 73116,
      "componentType": 5126,
      "count": 3047,
      "max": [
        1.0,
        1.0,
        1.0
      ],
      "min": [
        -1.0,
        -1.0,
        -1.0
      ],
      "type": "VEC3"
    },
    {
      "bufferView": 3,
      "byteOffset": 24368,
      "componentType": 5126,
      "count": 3047,
      "max": [
        1.0,
        1.0,
        1.0,
        1.0
      ],
      "min": [
        -0.9998469948768616,
        -1.0,
        -0.9999969005584717,
        1.0
      ],
      "type": "VEC4"
    },
    {
      "bufferView": 1,
      "byteOffset": 12184,
      "componentType": 5126,
      "count": 3047,
      "max": [
        0.9733302593231201,
        0.9997174739837646
      ],
      "min": [
        0.00028264420689083636,
        0.00028264420689083636
      ],
      "type": "VEC2"
    },
    {
      "bufferView": 0,
      "byteOffset": 28824,
      "componentType": 5125,
      "count": 14130,
      "type": "SCALAR"
    }
  ],
  "asset": {
    "extras": {
      "author": "kons127 (https://sketchfab.com/kons127)",
      "license": "CC-BY-4.0 (http://creativecommons.org/licenses/by/4.0/)",
      "source": "https://sketchfab.com/3d-models/christmas-snowman-ball-b56099d70cad43248453ebc3615b0d40",
      "title": "Christmas Snowman Ball"
    },
    "generator": "Sketchfab-12.63.0",
    "version": "2.0"
  },
  "bufferViews": [
    {
      "buffer": 0,
      "byteLength": 85344,
      "name": "floatBufferViews",
      "target": 34963
    },
    {
      "buffer": 0,
      "byteLength": 36560,
      "byteOffset": 85344,
      "byteStride": 8,
      "name": "floatBufferViews",
      "target": 34962
    },
    {
      "buffer": 0,
      "byteLength": 109680,
      "byteOffset": 121904,
      "byteStride": 12,
      "name": "floatBufferViews",
      "target": 34962
    },
    {
      "buffer": 0,
      "byteLength": 73120,
      "byteOffset": 231584,
      "byteStride": 16,
      "name": "floatBufferViews",
      "target": 34962
    }
  ],
  "buffers": [
    {
      "byteLength": 304704,
      "uri": "scene.bin"
    }
  ],
  "images": [
    {
      "uri": "textures/Chrictmas_Snowman_Ball.001_baseColor.png"
    },
    {
      "uri": "textures/Chrictmas_Snowman_Ball.001_metallicRoughness.png"
    },
    {
      "uri": "textures/Chrictmas_Snowman_Ball.001_normal.png"
    },
    {
      "uri": "textures/Snowman_baseColor.png"
    },
    {
      "uri": "textures/Snowman_metallicRoughness.png"
    },
    {
      "uri": "textures/Snowman_normal.png"
    }
  ],
  "materials": [
    {
      "alphaMode": "BLEND",
      "doubleSided": true,
      "name": "Chrictmas_Snowman_Ball.001",
      "normalTexture": {
        "index": 2
      },
      "pbrMetallicRoughness": {
        "baseColorTexture": {
          "index": 0
        },
        "metallicRoughnessTexture": {
          "index": 1
        }
      }
    },
    {
      "doubleSided": true,
      "name": "Snowman",
      "normalTexture": {
        "index": 5
      },
      "pbrMetallicRoughness": {
        "baseColorTexture": {
          "index": 3
        },
        "metallicRoughnessTexture": {
          "index": 4
        }
      }
    }
  ],
  "meshes": [
    {
      "name": "Object_0",
      "primitives": [
        {
          "attributes": {
            "NORMAL": 1,
            "POSITION": 0,
            "TANGENT": 2,
            "TEXCOORD_0": 3
          },
          "indices": 4,
          "material": 0,
          "mode": 4
        }
      ]
    },
    {
      "name": "Object_1",
      "primitives": [
        {
          "attributes": {
            "NORMAL": 6,
            "POSITION": 5,
            "TANGENT": 7,
            "TEXCOORD_0": 8
          },
          "indices": 9,
          "material": 1,
          "mode": 4
        }
      ]
    }
  ],
  "nodes": [
    {
      "children": [
        1
      ],
      "matrix": [
        1.0,
        0.0,
        0.0,
        0.0,
        0.0,
        2.220446049250313e-16,
        -1.0,
        0.0,
        0.0,
        1.0,
        2.220446049250313e-16,
        0.0,
        0.0,
        0.0,
        0.0,
        1.0
      ],
      "name": "Sketchfab_model"
    },
    {
      "children": [
        2
      ],
      "name": "root"
    },
    {
      "children": [
        3
      ],
      "matrix": [
        1.0,
        0.0,
        0.0,
        0.0,
        0.0,
        2.220446049250313e-16,
        1.0,
        0.0,
        0.0,
        -1.0,
        2.220446049250313e-16,
        0.0,
        0.0,
        0.0,
        0.0,
        1.0
      ],
      "name": "GLTF_SceneRootNode"
    },
    {
      "children": [
        4,
        5
      ],
      "name": "Christmas Snowman Ball_0"
    },
    {
      "mesh": 0,
      "name": "Object_4"
    },
    {
      "mesh": 1,
      "name": "Object_5"
    }
  ],
  "samplers": [
    {
      "magFilter": 9729,
      "minFilter": 9987,
      "wrapS": 10497,
      "wrapT": 10497
    }
  ],
  "scene": 0,
  "scenes": [
    {
      "name": "Sketchfab_Scene",
      "nodes": [
        0
      ]
    }
  ],
  "textures": [
    {
      "sampler": 0,
      "source": 0
    },
    {
      "sampler": 0,
      "source": 1
    },
    {
      "sampler": 0,
      "source": 2
    },
    {
      "sampler": 0,
      "source": 3
    },
    {
      "sampler": 0,
      "source": 4
    },
    {
      "sampler": 0,
      "source": 5
    }
  ]
}
