{
  "accessors": [
    {
      "bufferView": 2,
      "componentType": 5126,
      "count": 1440,
      "max": [
        0.9457330107688904,
        0.24417699873447418,
        1.006564974784851
      ],
      "min": [
        -0.9446460008621216,
        -0.24417699873447418,
        -1.252040982246399
      ],
      "type": "VEC3"
    },
    {
      "bufferView": 2,
      "byteOffset": 17280,
      "componentType": 5126,
      "count": 1440,
      "max": [
        0.9953188896179199,
        0.9999923706054688,
        0.9959952235221863
      ],
      "min": [
        -0.9951751828193665,
        -0.9999923706054688,
        -0.9934919476509094
      ],
      "type": "VEC3"
    },
    {
      "bufferView": 1,
      "componentType": 5126,
      "count": 1440,
      "max": [
        1.0,
        1.0
      ],
      "min": [
        0.0,
        0.0
      ],
      "type": "VEC2"
    },
    {
      "bufferView": 0,
      "componentType": 5125,
      "count": 7908,
      "type": "SCALAR"
    }
  ],
  "asset": {
    "extras": {
      "author": "Criistinaa (https://sketchfab.com/Criistinaa)",
      "license": "CC-BY-4.0 (http://creativecommons.org/licenses/by/4.0/)",
      "source": "https://sketchfab.com/3d-models/christmas-star-de23837809ab4afa92e73bc3244100d4",
      "title": "Christmas Star"
    },
    "generator": "Sketchfab-15.53.0",
    "version": "2.0"
  },
  "bufferViews": [
    {
      "buffer": 0,
      "byteLength": 31632,
      "name": "floatBufferViews",
      "target": 34963
    },
    {
      "buffer": 0,
      "byteLength": 11520,
      "byteOffset": 31632,
      "byteStride": 8,
      "name": "floatBufferViews",
      "target": 34962
    },
    {
      "buffer": 0,
      "byteLength": 34560,
      "byteOffset": 43152,
      "byteStride": 12,
      "name": "floatBufferViews",
      "target": 34962
    }
  ],
  "buffers": [
    {
      "byteLength": 77712,
      "uri": "scene.bin"
    }
  ],
  "materials": [
    {
      "doubleSided": true,
      "name": "Star",
      "pbrMetallicRoughness": {
        "baseColorFactor": [
          0.577581,
          0.278894,
          0.024158,
          1.0
        ],
        "roughnessFactor": 0.08471846710094062
      }
    }
  ],
  "meshes": [
    {
      "name": "Object_0",
      "primitives": [
        {
          "attributes": {
            "NORMAL": 1,
            "POSITION": 0,
            "TEXCOORD_0": 2
          },
          "indices": 3,
          "material": 0,
          "mode": 4
        }
      ]
    }
  ],
  "nodes": [
    {
      "children": [
        1
      ],
      "matrix": [
        1.0,
        0.0,
        0.0,
        0.0,
        0.0,
        2.220446049250313e-16,
        -1.0,
        0.0,
        0.0,
        1.0,
        2.220446049250313e-16,
        0.0,
        0.0,
        0.0,
        0.0,
        1.0
      ],
      "name": "Sketchfab_model"
    },
    {
      "children": [
        2
      ],
      "name": "ChristmasStar.obj.cleaner.materialmerger.gles"
    },
    {
      "mesh": 0,
      "name": "Object_2"
    }
  ],
  "scene": 0,
  "scenes": [
    {
      "name": "Sketchfab_Scene",
      "nodes": [
        0
      ]
    }
  ]
}
