{
	"asset":{
		"generator":"Khronos glTF Blender I/O v4.0.44",
		"version":"2.0"
	},
	"scene":0,
	"scenes":[
		{
			"name":"Scene",
			"nodes":[
				0
			]
		}
	],
	"nodes":[
		{
			"mesh":0,
			"name":"Text"
		}
	],
	"materials":[
		{
			"doubleSided":true,
			"name":"Material.001",
			"pbrMetallicRoughness":{
				"metallicFactor":0.4000000059604645
			}
		}
	],
	"meshes":[
		{
			"name":"Text",
			"primitives":[
				{
					"attributes":{
						"POSITION":0,
						"NORMAL":1,
						"TEXCOORD_0":2
					},
					"indices":3,
					"material":0
				}
			]
		}
	],
	"accessors":[
		{
			"bufferView":0,
			"componentType":5126,
			"count":7228,
			"max":[
				2.533881425857544,
				0.04999589920043945,
				1.233314871788025
			],
			"min":[
				-2.517199993133545,
				-0.05000138282775879,
				-1.3999760150909424
			],
			"type":"VEC3"
		},
		{
			"bufferView":1,
			"componentType":5126,
			"count":7228,
			"type":"VEC3"
		},
		{
			"bufferView":2,
			"componentType":5126,
			"count":7228,
			"type":"VEC2"
		},
		{
			"bufferView":3,
			"componentType":5123,
			"count":13758,
			"type":"SCALAR"
		}
	],
	"bufferViews":[
		{
			"buffer":0,
			"byteLength":86736,
			"byteOffset":0,
			"target":34962
		},
		{
			"buffer":0,
			"byteLength":86736,
			"byteOffset":86736,
			"target":34962
		},
		{
			"buffer":0,
			"byteLength":57824,
			"byteOffset":173472,
			"target":34962
		},
		{
			"buffer":0,
			"byteLength":27516,
			"byteOffset":231296,
			"target":34963
		}
	],
	"buffers":[
		{
			"byteLength":258812,
			"uri":"scene.bin"
		}
	]
}
